<?xml version="1.0" encoding="UTF-8" standalone="no"?>
<!-- Created with Inkscape (http://www.inkscape.org/) -->

<svg
   version="1.1"
   id="svg1"
   width="937.32001"
   height="100.36"
   viewBox="0 0 937.32001 100.36"
   xmlns="http://www.w3.org/2000/svg"
   xmlns:svg="http://www.w3.org/2000/svg">
  <defs
     id="defs1" />
  <g
     id="g1">
    <g
       id="group-R5">
      <path
         id="path2"
         d="M 2714.83,237.652 V 217.75 c 0,-74.059 15.47,-103.902 63.01,-119.3789 43.1,-14.3633 124.9,-20.9961 257.54,-20.9961 288.5,0 340.45,22.1094 340.45,144.801 0,61.898 -18.78,89.535 -68.53,103.898 -48.64,13.274 -53.06,13.274 -382.46,15.481 -133.74,1.101 -191.23,11.05 -236.54,40.898 -44.21,29.844 -61.91,70.742 -61.91,143.695 0,110.54 39.81,173.536 127.13,198.961 63.01,18.793 160.27,27.637 311.71,27.637 170.23,0 257.55,-12.16 308.4,-44.215 54.16,-33.164 70.74,-71.843 74.05,-174.648 h -86.21 c -1.11,58.586 -11.06,85.113 -35.38,103.902 -34.27,26.528 -110.53,37.582 -259.76,37.582 -290.72,0 -347.07,-23.211 -347.07,-141.484 0,-50.84 14.35,-79.582 45.31,-93.953 38.69,-17.684 71.85,-19.895 280.77,-21 234.33,-1.106 285.18,-5.532 338.22,-30.953 59.7,-28.739 84.02,-78.477 84.02,-170.227 0,-101.695 -34.27,-162.4844 -107.22,-190.1211 C 3306.2,7.73438 3222.19,0.00390625 3051.96,0.00390625 2872.9,0.00390625 2788.88,7.73438 2729.21,27.6289 2662.87,50.8438 2626.39,107.219 2626.39,186.809 v 50.843 h 88.44"
         style="fill:#ffffff;fill-opacity:1;fill-rule:nonzero;stroke:none"
         transform="matrix(0.13333333,0,0,-0.13333333,0,100.36)" />
      <path
         id="path3"
         d="m 4143.53,371.398 c 159.17,0 194.55,27.633 194.55,150.329 0,119.378 -35.38,149.222 -176.86,149.222 H 3682.61 V 371.398 Z m -549.36,373.614 h 594.68 c 116.08,0 161.39,-11.055 196.75,-48.637 32.05,-33.164 44.21,-80.695 44.21,-169.121 0,-108.324 -14.35,-153.649 -58.56,-189.02 -36.5,-28.734 -82.92,-40.894 -162.49,-40.894 H 3682.61 V 7.73438 h -88.44 V 745.012"
         style="fill:#ffffff;fill-opacity:1;fill-rule:nonzero;stroke:none"
         transform="matrix(0.13333333,0,0,-0.13333333,0,100.36)" />
      <path
         id="path4"
         d="m 4584.06,7.73438 h -30 V 745.012 h 30 V 7.73438"
         style="fill:#ffffff;fill-opacity:1;fill-rule:nonzero;stroke:none"
         transform="matrix(0.13333333,0,0,-0.13333333,0,100.36)" />
      <path
         id="path5"
         d="M 2164.4,745.012 H 2039.43 L 1604.76,7.29688 h 98.44 L 2102.47,683.066 2501.74,7.29688 h 97.33 L 2164.4,745.012"
         style="fill:#ffffff;fill-opacity:1;fill-rule:nonzero;stroke:none"
         transform="matrix(0.13333333,0,0,-0.13333333,0,100.36)" />
      <path
         id="path6"
         d="M 1792.85,745.012 1393.58,69.2383 994.313,745.012 H 895.867 L 496.602,69.2383 97.332,745.012 H -0.00390625 L 434.664,7.29688 H 559.645 L 945.645,662.414 1331.65,7.29688 h 124.98 L 1891.29,745.012 h -98.44"
         style="fill:#ffffff;fill-opacity:1;fill-rule:nonzero;stroke:none"
         transform="matrix(0.13333333,0,0,-0.13333333,0,100.36)" />
      <path
         id="path7"
         d="m 4875.01,744.762 -30.88,-207.403 h -27.96 l -22.72,134.575 h -0.59 l -22.42,-134.575 h -27.97 l -30.88,207.403 h 31.46 l 14.86,-131.664 h 0.58 l 23.31,131.664 h 22.71 l 24.18,-134.871 h 0.59 l 14.26,134.871 h 31.47"
         style="fill:#ffffff;fill-opacity:1;fill-rule:nonzero;stroke:none"
         transform="matrix(0.13333333,0,0,-0.13333333,0,100.36)" />
      <path
         id="path8"
         d="m 4944.91,609.891 -14.56,75.156 h -0.59 l -14.56,-75.156 z m -73.4,-72.532 46.31,207.403 h 24.77 l 46.3,-207.403 h -29.7 l -8.74,44.567 h -40.49 l -8.74,-44.567 h -29.71"
         style="fill:#ffffff;fill-opacity:1;fill-rule:nonzero;stroke:none"
         transform="matrix(0.13333333,0,0,-0.13333333,0,100.36)" />
      <path
         id="path9"
         d="m 5003.46,537.359 v 207.403 h 29.71 V 567.07 h 58.85 v -29.711 h -88.56"
         style="fill:#ffffff;fill-opacity:1;fill-rule:nonzero;stroke:none"
         transform="matrix(0.13333333,0,0,-0.13333333,0,100.36)" />
      <path
         id="path10"
         d="m 5111.24,537.359 v 207.403 h 29.71 V 567.07 h 58.84 v -29.711 h -88.55"
         style="fill:#ffffff;fill-opacity:1;fill-rule:nonzero;stroke:none"
         transform="matrix(0.13333333,0,0,-0.13333333,0,100.36)" />
      <path
         id="path11"
         d="m 5219.02,537.359 v 207.403 h 88.56 v -27.969 h -58.85 V 655.914 H 5300 v -27.965 h -51.27 V 567.07 h 58.85 v -29.711 h -88.56"
         style="fill:#ffffff;fill-opacity:1;fill-rule:nonzero;stroke:none"
         transform="matrix(0.13333333,0,0,-0.13333333,0,100.36)" />
      <path
         id="path12"
         d="m 5325.62,537.359 v 207.403 h 28.56 l 44.85,-124.965 h 0.59 v 124.965 h 29.7 V 537.359 h -27.95 l -45.44,124.672 h -0.59 V 537.359 h -29.72"
         style="fill:#ffffff;fill-opacity:1;fill-rule:nonzero;stroke:none"
         transform="matrix(0.13333333,0,0,-0.13333333,0,100.36)" />
      <path
         id="path13"
         d="M 5485.83,633.488 V 567.07 h 12.82 c 6.02,0 10.72,0.875 14.12,2.625 3.4,1.746 5.98,4.172 7.73,7.278 1.74,3.105 2.81,6.797 3.2,11.07 0.39,4.273 0.59,8.93 0.59,13.984 0,5.246 -0.3,9.805 -0.88,13.692 -0.59,3.883 -1.75,7.183 -3.5,9.902 -1.94,2.715 -4.56,4.707 -7.86,5.973 -3.31,1.258 -7.68,1.894 -13.11,1.894 z m 0,83.305 v -57.09 h 13.4 c 9.91,0 16.55,2.477 19.96,7.426 3.39,4.953 5.1,12.184 5.1,21.699 0,9.324 -1.9,16.317 -5.69,20.977 -3.79,4.66 -10.63,6.988 -20.54,6.988 z m -29.71,-179.434 v 207.403 h 43.4 c 9.51,0 17.63,-1.461 24.33,-4.371 6.7,-2.914 12.18,-6.801 16.45,-11.653 4.27,-4.855 7.33,-10.441 9.18,-16.75 1.84,-6.312 2.76,-12.867 2.76,-19.664 v -7.57 c 0,-5.637 -0.44,-10.391 -1.3,-14.274 -0.88,-3.886 -2.19,-7.281 -3.94,-10.195 -3.3,-5.441 -8.35,-10.097 -15.15,-13.98 7,-3.305 12.14,-8.16 15.44,-14.567 3.3,-6.41 4.95,-15.144 4.95,-26.215 v -11.656 c 0,-18.25 -4.41,-32.234 -13.25,-41.941 -8.84,-9.711 -22.97,-14.567 -42.38,-14.567 h -40.49"
         style="fill:#ffffff;fill-opacity:1;fill-rule:nonzero;stroke:none"
         transform="matrix(0.13333333,0,0,-0.13333333,0,100.36)" />
      <path
         id="path14"
         d="m 5580.21,537.359 v 207.403 h 88.56 v -27.969 h -58.85 v -60.879 h 51.27 v -27.965 h -51.27 V 567.07 h 58.85 v -29.711 h -88.56"
         style="fill:#ffffff;fill-opacity:1;fill-rule:nonzero;stroke:none"
         transform="matrix(0.13333333,0,0,-0.13333333,0,100.36)" />
      <path
         id="path15"
         d="m 5717.69,716.793 v -64.66 h 16.9 c 5.24,0 9.42,0.726 12.53,2.18 3.1,1.457 5.53,3.539 7.28,6.265 1.56,2.715 2.62,6.063 3.21,10.047 0.57,3.98 0.86,8.594 0.86,13.84 0,5.238 -0.29,9.851 -0.86,13.832 -0.59,3.98 -1.75,7.433 -3.5,10.344 -3.69,5.433 -10.68,8.152 -20.98,8.152 z m -29.7,-179.434 v 207.403 h 47.77 c 34.95,0 52.43,-20.297 52.43,-60.883 0,-12.231 -1.89,-22.621 -5.68,-31.168 -3.79,-8.551 -10.44,-15.438 -19.95,-20.684 l 32.04,-94.668 h -31.47 l -27.66,88.555 h -17.78 v -88.555 h -29.7"
         style="fill:#ffffff;fill-opacity:1;fill-rule:nonzero;stroke:none"
         transform="matrix(0.13333333,0,0,-0.13333333,0,100.36)" />
      <path
         id="path16"
         d="m 5810.33,695.82 c 0,8.352 1.46,15.735 4.37,22.141 2.91,6.41 6.79,11.746 11.65,16.019 4.66,4.079 9.95,7.184 15.87,9.321 5.92,2.137 11.9,3.203 17.91,3.203 6.03,0 12,-1.066 17.92,-3.203 5.92,-2.137 11.31,-5.242 16.17,-9.321 4.66,-4.273 8.44,-9.609 11.36,-16.019 2.91,-6.406 4.37,-13.789 4.37,-22.141 v -10.48 h -29.71 v 10.48 c 0,7.184 -2,12.477 -5.97,15.875 -3.99,3.399 -8.7,5.098 -14.14,5.098 -5.43,0 -10.14,-1.699 -14.12,-5.098 -3.98,-3.398 -5.97,-8.691 -5.97,-15.875 V 586.297 c 0,-7.188 1.99,-12.481 5.97,-15.875 3.98,-3.399 8.69,-5.098 14.12,-5.098 5.44,0 10.15,1.699 14.14,5.098 3.97,3.394 5.97,8.687 5.97,15.875 v 39.031 h -23.6 v 26.219 h 53.31 v -65.25 c 0,-8.738 -1.46,-16.219 -4.37,-22.43 -2.92,-6.219 -6.7,-11.359 -11.36,-15.437 -4.86,-4.274 -10.25,-7.481 -16.17,-9.614 -5.92,-2.136 -11.89,-3.203 -17.92,-3.203 -6.01,0 -11.99,1.067 -17.91,3.203 -5.92,2.133 -11.21,5.34 -15.87,9.614 -4.86,4.078 -8.74,9.218 -11.65,15.437 -2.91,6.211 -4.37,13.692 -4.37,22.43 V 695.82"
         style="fill:#ffffff;fill-opacity:1;fill-rule:nonzero;stroke:none"
         transform="matrix(0.13333333,0,0,-0.13333333,0,100.36)" />
      <path
         id="path17"
         d="m 6050.35,609.891 -14.56,75.156 h -0.59 l -14.56,-75.156 z m -73.4,-72.532 46.31,207.403 h 24.77 l 46.3,-207.403 h -29.7 l -8.74,44.567 h -40.49 l -8.74,-44.567 h -29.71"
         style="fill:#ffffff;fill-opacity:1;fill-rule:nonzero;stroke:none"
         transform="matrix(0.13333333,0,0,-0.13333333,0,100.36)" />
      <path
         id="path18"
         d="m 6109.77,537.359 v 207.403 h 29.72 V 537.359 h -29.72"
         style="fill:#ffffff;fill-opacity:1;fill-rule:nonzero;stroke:none"
         transform="matrix(0.13333333,0,0,-0.13333333,0,100.36)" />
      <path
         id="path19"
         d="m 6166.57,515.805 v 51.265 h 29.71 v -29.711 l -29.71,-21.554"
         style="fill:#ffffff;fill-opacity:1;fill-rule:nonzero;stroke:none"
         transform="matrix(0.13333333,0,0,-0.13333333,0,100.36)" />
      <path
         id="path20"
         d="m 4780.92,345.203 -14.56,75.156 h -0.59 l -14.56,-75.156 z m -73.4,-72.531 46.31,207.402 h 24.76 l 46.31,-207.402 h -29.71 l -8.74,44.566 h -40.49 l -8.74,-44.566 h -29.7"
         style="fill:#ffffff;fill-opacity:1;fill-rule:nonzero;stroke:none"
         transform="matrix(0.13333333,0,0,-0.13333333,0,100.36)" />
      <path
         id="path21"
         d="M 4935.59,480.074 V 319.277 c 0,-6.8 -1.21,-13.058 -3.64,-18.789 -2.43,-5.726 -5.87,-10.824 -10.34,-15.293 -4.46,-4.465 -9.61,-7.961 -15.44,-10.48 -5.82,-2.527 -12.04,-3.789 -18.64,-3.789 -6.6,0 -12.77,1.262 -18.5,3.789 -5.72,2.519 -10.82,6.015 -15.29,10.48 -4.46,4.469 -7.96,9.567 -10.48,15.293 -2.53,5.731 -3.79,11.989 -3.79,18.789 v 160.797 h 29.71 V 322.195 c 0,-7.382 1.75,-12.816 5.24,-16.312 3.5,-3.496 7.87,-5.246 13.11,-5.246 5.24,0 9.62,1.75 13.11,5.246 3.5,3.496 5.25,8.93 5.25,16.312 v 157.879 h 29.7"
         style="fill:#ffffff;fill-opacity:1;fill-rule:nonzero;stroke:none"
         transform="matrix(0.13333333,0,0,-0.13333333,0,100.36)" />
      <path
         id="path22"
         d="m 4983.07,272.672 v 179.433 h -34.36 v 27.969 h 98.45 v -27.969 h -34.37 V 272.672 h -29.72"
         style="fill:#ffffff;fill-opacity:1;fill-rule:nonzero;stroke:none"
         transform="matrix(0.13333333,0,0,-0.13333333,0,100.36)" />
      <path
         id="path23"
         d="m 5084.73,321.609 c 0,-7.187 2,-12.48 5.98,-15.875 3.98,-3.398 8.68,-5.097 14.12,-5.097 5.44,0 10.15,1.699 14.13,5.097 3.98,3.395 5.98,8.688 5.98,15.875 v 109.528 c 0,7.179 -2,12.472 -5.98,15.871 -3.98,3.398 -8.69,5.097 -14.13,5.097 -5.44,0 -10.14,-1.699 -14.12,-5.097 -3.98,-3.399 -5.98,-8.692 -5.98,-15.871 z m -29.7,109.528 c 0,8.347 1.45,15.73 4.36,22.136 2.91,6.411 6.8,11.747 11.65,16.02 4.67,4.078 9.95,7.184 15.88,9.32 5.92,2.137 11.9,3.203 17.91,3.203 6.03,0 11.99,-1.066 17.92,-3.203 5.92,-2.136 11.31,-5.242 16.16,-9.32 4.67,-4.273 8.45,-9.609 11.37,-16.02 2.91,-6.406 4.37,-13.789 4.37,-22.136 V 321.609 c 0,-8.738 -1.46,-16.218 -4.37,-22.429 -2.92,-6.219 -6.7,-11.36 -11.37,-15.438 -4.85,-4.273 -10.24,-7.48 -16.16,-9.613 -5.93,-2.137 -11.89,-3.203 -17.92,-3.203 -6.01,0 -11.99,1.066 -17.91,3.203 -5.93,2.133 -11.21,5.34 -15.88,9.613 -4.85,4.078 -8.74,9.219 -11.65,15.438 -2.91,6.211 -4.36,13.691 -4.36,22.429 v 109.528"
         style="fill:#ffffff;fill-opacity:1;fill-rule:nonzero;stroke:none"
         transform="matrix(0.13333333,0,0,-0.13333333,0,100.36)" />
      <path
         id="path24"
         d="m 5179.69,272.672 v 207.402 h 28.55 l 44.85,-124.965 h 0.59 v 124.965 h 29.71 V 272.672 h -27.96 l -45.44,124.672 h -0.59 V 272.672 h -29.71"
         style="fill:#ffffff;fill-opacity:1;fill-rule:nonzero;stroke:none"
         transform="matrix(0.13333333,0,0,-0.13333333,0,100.36)" />
      <path
         id="path25"
         d="m 5338.15,321.609 c 0,-7.187 1.99,-12.48 5.98,-15.875 3.97,-3.398 8.68,-5.097 14.12,-5.097 5.44,0 10.15,1.699 14.13,5.097 3.98,3.395 5.98,8.688 5.98,15.875 v 109.528 c 0,7.179 -2,12.472 -5.98,15.871 -3.98,3.398 -8.69,5.097 -14.13,5.097 -5.44,0 -10.15,-1.699 -14.12,-5.097 -3.99,-3.399 -5.98,-8.692 -5.98,-15.871 z m -29.7,109.528 c 0,8.347 1.45,15.73 4.36,22.136 2.91,6.411 6.8,11.747 11.65,16.02 4.67,4.078 9.95,7.184 15.88,9.32 5.92,2.137 11.89,3.203 17.91,3.203 6.03,0 11.99,-1.066 17.92,-3.203 5.92,-2.136 11.31,-5.242 16.16,-9.32 4.67,-4.273 8.45,-9.609 11.37,-16.02 2.91,-6.406 4.36,-13.789 4.36,-22.136 V 321.609 c 0,-8.738 -1.45,-16.218 -4.36,-22.429 -2.92,-6.219 -6.7,-11.36 -11.37,-15.438 -4.85,-4.273 -10.24,-7.48 -16.16,-9.613 -5.93,-2.137 -11.89,-3.203 -17.92,-3.203 -6.02,0 -11.99,1.066 -17.91,3.203 -5.93,2.133 -11.21,5.34 -15.88,9.613 -4.85,4.078 -8.74,9.219 -11.65,15.438 -2.91,6.211 -4.36,13.691 -4.36,22.429 v 109.528"
         style="fill:#ffffff;fill-opacity:1;fill-rule:nonzero;stroke:none"
         transform="matrix(0.13333333,0,0,-0.13333333,0,100.36)" />
      <path
         id="path26"
         d="m 5434.28,272.672 v 207.402 h 28.54 l 38.15,-109.816 h 0.59 l 37.87,109.816 h 28.84 V 272.672 h -29.72 v 126.129 h -0.57 l -29.43,-89.137 h -14.85 l -29.13,89.137 h -0.59 V 272.672 h -29.7"
         style="fill:#ffffff;fill-opacity:1;fill-rule:nonzero;stroke:none"
         transform="matrix(0.13333333,0,0,-0.13333333,0,100.36)" />
      <path
         id="path27"
         d="m 5624.2,321.609 c 0,-7.187 1.99,-12.48 5.97,-15.875 3.98,-3.398 8.69,-5.097 14.13,-5.097 5.43,0 10.14,1.699 14.13,5.097 3.97,3.395 5.97,8.688 5.97,15.875 v 109.528 c 0,7.179 -2,12.472 -5.97,15.871 -3.99,3.398 -8.7,5.097 -14.13,5.097 -5.44,0 -10.15,-1.699 -14.13,-5.097 -3.98,-3.399 -5.97,-8.692 -5.97,-15.871 z m -29.71,109.528 c 0,8.347 1.46,15.73 4.37,22.136 2.91,6.411 6.79,11.747 11.65,16.02 4.66,4.078 9.95,7.184 15.87,9.32 5.92,2.137 11.9,3.203 17.92,3.203 6.02,0 11.99,-1.066 17.91,-3.203 5.92,-2.136 11.31,-5.242 16.17,-9.32 4.67,-4.273 8.44,-9.609 11.36,-16.02 2.91,-6.406 4.37,-13.789 4.37,-22.136 V 321.609 c 0,-8.738 -1.46,-16.218 -4.37,-22.429 -2.92,-6.219 -6.69,-11.36 -11.36,-15.438 -4.86,-4.273 -10.25,-7.48 -16.17,-9.613 -5.92,-2.137 -11.89,-3.203 -17.91,-3.203 -6.02,0 -12,1.066 -17.92,3.203 -5.92,2.133 -11.21,5.34 -15.87,9.613 -4.86,4.078 -8.74,9.219 -11.65,15.438 -2.91,6.211 -4.37,13.691 -4.37,22.429 v 109.528"
         style="fill:#ffffff;fill-opacity:1;fill-rule:nonzero;stroke:none"
         transform="matrix(0.13333333,0,0,-0.13333333,0,100.36)" />
      <path
         id="path28"
         d="M 5816.45,480.074 V 319.277 c 0,-6.8 -1.21,-13.058 -3.64,-18.789 -2.43,-5.726 -5.87,-10.824 -10.34,-15.293 -4.46,-4.465 -9.61,-7.961 -15.44,-10.48 -5.82,-2.527 -12.04,-3.789 -18.64,-3.789 -6.6,0 -12.77,1.262 -18.5,3.789 -5.72,2.519 -10.82,6.015 -15.29,10.48 -4.47,4.469 -7.96,9.567 -10.48,15.293 -2.53,5.731 -3.79,11.989 -3.79,18.789 v 160.797 h 29.71 V 322.195 c 0,-7.382 1.75,-12.816 5.24,-16.312 3.5,-3.496 7.87,-5.246 13.11,-5.246 5.24,0 9.62,1.75 13.11,5.246 3.5,3.496 5.25,8.93 5.25,16.312 v 157.879 h 29.7"
         style="fill:#ffffff;fill-opacity:1;fill-rule:nonzero;stroke:none"
         transform="matrix(0.13333333,0,0,-0.13333333,0,100.36)" />
      <path
         id="path29"
         d="m 5940.54,420.359 h -29.71 v 6.7 c 0,6.796 -1.6,12.668 -4.82,17.621 -3.2,4.953 -8.58,7.425 -16.16,7.425 -4.08,0 -7.38,-0.777 -9.9,-2.328 -2.53,-1.558 -4.57,-3.496 -6.12,-5.824 -1.56,-2.523 -2.62,-5.39 -3.21,-8.594 -0.57,-3.203 -0.87,-6.554 -0.87,-10.05 0,-4.079 0.15,-7.473 0.44,-10.196 0.29,-2.718 1.02,-5.144 2.18,-7.277 1.17,-2.141 2.86,-3.988 5.1,-5.539 2.24,-1.559 5.29,-3.106 9.18,-4.66 l 22.71,-9.032 c 6.6,-2.523 11.95,-5.488 16.03,-8.882 4.08,-3.399 7.28,-7.332 9.61,-11.797 2.14,-4.664 3.59,-9.957 4.37,-15.879 0.77,-5.922 1.17,-12.668 1.17,-20.242 0,-8.739 -0.87,-16.848 -2.62,-24.325 -1.75,-7.476 -4.57,-13.835 -8.45,-19.082 -4.08,-5.433 -9.42,-9.71 -16.02,-12.808 -6.61,-3.11 -14.67,-4.664 -24.18,-4.664 -7.19,0 -13.89,1.262 -20.1,3.789 -6.21,2.519 -11.55,6.015 -16.02,10.48 -4.47,4.469 -8.02,9.66 -10.63,15.586 -2.63,5.926 -3.94,12.379 -3.94,19.371 v 11.071 h 29.72 v -9.321 c 0,-5.441 1.6,-10.343 4.8,-14.714 3.21,-4.368 8.6,-6.551 16.17,-6.551 5.04,0 8.98,0.726 11.79,2.183 2.82,1.457 5,3.543 6.57,6.266 1.54,2.719 2.47,5.969 2.76,9.758 0.29,3.785 0.44,8.008 0.44,12.672 0,5.433 -0.2,9.902 -0.59,13.398 -0.39,3.496 -1.16,6.309 -2.33,8.445 -1.36,2.137 -3.16,3.883 -5.38,5.246 -2.24,1.352 -5.21,2.813 -8.89,4.372 l -21.27,8.734 c -12.81,5.242 -21.41,12.187 -25.78,20.828 -4.37,8.641 -6.55,19.465 -6.55,32.477 0,7.769 1.06,15.152 3.2,22.14 2.14,6.992 5.34,13.008 9.62,18.063 4.07,5.047 9.27,9.074 15.59,12.086 6.3,3.008 13.82,4.511 22.56,4.511 7.39,0 14.13,-1.355 20.25,-4.074 6.12,-2.722 11.4,-6.312 15.88,-10.777 8.92,-9.32 13.4,-20.004 13.4,-32.039 v -14.567"
         style="fill:#ffffff;fill-opacity:1;fill-rule:nonzero;stroke:none"
         transform="matrix(0.13333333,0,0,-0.13333333,0,100.36)" />
      <path
         id="path30"
         d="m 6112.98,420.359 h -29.71 v 6.7 c 0,6.796 -1.6,12.668 -4.81,17.621 -3.21,4.953 -8.59,7.425 -16.17,7.425 -4.08,0 -7.38,-0.777 -9.9,-2.328 -2.53,-1.558 -4.57,-3.496 -6.12,-5.824 -1.56,-2.523 -2.62,-5.39 -3.21,-8.594 -0.57,-3.203 -0.86,-6.554 -0.86,-10.05 0,-4.079 0.14,-7.473 0.43,-10.196 0.29,-2.718 1.02,-5.144 2.18,-7.277 1.17,-2.141 2.86,-3.988 5.1,-5.539 2.24,-1.559 5.29,-3.106 9.18,-4.66 l 22.71,-9.032 c 6.61,-2.523 11.95,-5.488 16.03,-8.882 4.08,-3.399 7.29,-7.332 9.61,-11.797 2.14,-4.664 3.59,-9.957 4.37,-15.879 0.78,-5.922 1.17,-12.668 1.17,-20.242 0,-8.739 -0.87,-16.848 -2.62,-24.325 -1.75,-7.476 -4.57,-13.835 -8.45,-19.082 -4.08,-5.433 -9.42,-9.71 -16.02,-12.808 -6.6,-3.11 -14.67,-4.664 -24.18,-4.664 -7.19,0 -13.89,1.262 -20.1,3.789 -6.21,2.519 -11.55,6.015 -16.02,10.48 -4.47,4.469 -8.01,9.66 -10.63,15.586 -2.63,5.926 -3.94,12.379 -3.94,19.371 v 11.071 h 29.72 v -9.321 c 0,-5.441 1.6,-10.343 4.81,-14.714 3.2,-4.368 8.59,-6.551 16.16,-6.551 5.05,0 8.98,0.726 11.79,2.183 2.82,1.457 5,3.543 6.57,6.266 1.54,2.719 2.47,5.969 2.76,9.758 0.29,3.785 0.44,8.008 0.44,12.672 0,5.433 -0.2,9.902 -0.59,13.398 -0.39,3.496 -1.16,6.309 -2.33,8.445 -1.36,2.137 -3.15,3.883 -5.38,5.246 -2.24,1.352 -5.21,2.813 -8.89,4.372 l -21.27,8.734 c -12.81,5.242 -21.4,12.187 -25.78,20.828 -4.36,8.641 -6.55,19.465 -6.55,32.477 0,7.769 1.06,15.152 3.2,22.14 2.14,6.992 5.34,13.008 9.62,18.063 4.07,5.047 9.27,9.074 15.59,12.086 6.31,3.008 13.82,4.511 22.57,4.511 7.38,0 14.13,-1.355 20.24,-4.074 6.12,-2.722 11.41,-6.312 15.88,-10.777 8.92,-9.32 13.4,-20.004 13.4,-32.039 v -14.567"
         style="fill:#ffffff;fill-opacity:1;fill-rule:nonzero;stroke:none"
         transform="matrix(0.13333333,0,0,-0.13333333,0,100.36)" />
      <path
         id="path31"
         d="m 6162.78,272.672 v 87.68 L 6122,480.074 h 31.46 l 23.89,-82.437 h 0.59 l 23.87,82.437 h 31.47 L 6192.5,360.352 v -87.68 h -29.72"
         style="fill:#ffffff;fill-opacity:1;fill-rule:nonzero;stroke:none"
         transform="matrix(0.13333333,0,0,-0.13333333,0,100.36)" />
      <path
         id="path32"
         d="m 6344.26,420.359 h -29.71 v 6.7 c 0,6.796 -1.6,12.668 -4.82,17.621 -3.2,4.953 -8.58,7.425 -16.16,7.425 -4.08,0 -7.38,-0.777 -9.9,-2.328 -2.53,-1.558 -4.57,-3.496 -6.12,-5.824 -1.56,-2.523 -2.62,-5.39 -3.21,-8.594 -0.57,-3.203 -0.87,-6.554 -0.87,-10.05 0,-4.079 0.15,-7.473 0.44,-10.196 0.29,-2.718 1.02,-5.144 2.18,-7.277 1.17,-2.141 2.86,-3.988 5.1,-5.539 2.24,-1.559 5.29,-3.106 9.18,-4.66 l 22.71,-9.032 c 6.61,-2.523 11.95,-5.488 16.03,-8.882 4.08,-3.399 7.28,-7.332 9.61,-11.797 2.14,-4.664 3.59,-9.957 4.37,-15.879 0.78,-5.922 1.17,-12.668 1.17,-20.242 0,-8.739 -0.87,-16.848 -2.62,-24.325 -1.75,-7.476 -4.57,-13.835 -8.45,-19.082 -4.08,-5.433 -9.42,-9.71 -16.02,-12.808 -6.61,-3.11 -14.67,-4.664 -24.18,-4.664 -7.19,0 -13.89,1.262 -20.1,3.789 -6.21,2.519 -11.55,6.015 -16.02,10.48 -4.47,4.469 -8.01,9.66 -10.63,15.586 -2.63,5.926 -3.94,12.379 -3.94,19.371 v 11.071 h 29.72 v -9.321 c 0,-5.441 1.6,-10.343 4.8,-14.714 3.21,-4.368 8.6,-6.551 16.17,-6.551 5.05,0 8.98,0.726 11.79,2.183 2.82,1.457 5,3.543 6.57,6.266 1.54,2.719 2.47,5.969 2.76,9.758 0.29,3.785 0.44,8.008 0.44,12.672 0,5.433 -0.2,9.902 -0.59,13.398 -0.39,3.496 -1.16,6.309 -2.33,8.445 -1.36,2.137 -3.16,3.883 -5.38,5.246 -2.24,1.352 -5.21,2.813 -8.89,4.372 l -21.27,8.734 c -12.81,5.242 -21.4,12.187 -25.78,20.828 -4.36,8.641 -6.55,19.465 -6.55,32.477 0,7.769 1.06,15.152 3.2,22.14 2.14,6.992 5.34,13.008 9.62,18.063 4.07,5.047 9.27,9.074 15.59,12.086 6.3,3.008 13.82,4.511 22.56,4.511 7.39,0 14.14,-1.355 20.25,-4.074 6.12,-2.722 11.4,-6.312 15.88,-10.777 8.92,-9.32 13.4,-20.004 13.4,-32.039 v -14.567"
         style="fill:#ffffff;fill-opacity:1;fill-rule:nonzero;stroke:none"
         transform="matrix(0.13333333,0,0,-0.13333333,0,100.36)" />
      <path
         id="path33"
         d="m 6385.91,272.672 v 179.433 h -34.37 v 27.969 h 98.45 v -27.969 h -34.37 V 272.672 h -29.71"
         style="fill:#ffffff;fill-opacity:1;fill-rule:nonzero;stroke:none"
         transform="matrix(0.13333333,0,0,-0.13333333,0,100.36)" />
      <path
         id="path34"
         d="m 6463.09,272.672 v 207.402 h 88.56 v -27.969 h -58.85 v -60.878 h 51.27 v -27.965 h -51.27 v -60.875 h 58.85 v -29.715 h -88.56"
         style="fill:#ffffff;fill-opacity:1;fill-rule:nonzero;stroke:none"
         transform="matrix(0.13333333,0,0,-0.13333333,0,100.36)" />
      <path
         id="path35"
         d="m 6570.88,272.672 v 207.402 h 28.54 l 38.16,-109.816 h 0.58 l 37.87,109.816 h 28.84 V 272.672 h -29.72 v 126.129 h -0.57 l -29.43,-89.137 h -14.85 l -29.13,89.137 h -0.59 V 272.672 h -29.7"
         style="fill:#ffffff;fill-opacity:1;fill-rule:nonzero;stroke:none"
         transform="matrix(0.13333333,0,0,-0.13333333,0,100.36)" />
      <path
         id="path36"
         d="m 6828.95,420.359 h -29.7 v 6.7 c 0,6.796 -1.61,12.668 -4.82,17.621 -3.2,4.953 -8.58,7.425 -16.16,7.425 -4.08,0 -7.38,-0.777 -9.9,-2.328 -2.53,-1.558 -4.57,-3.496 -6.13,-5.824 -1.55,-2.523 -2.61,-5.39 -3.2,-8.594 -0.58,-3.203 -0.87,-6.554 -0.87,-10.05 0,-4.079 0.15,-7.473 0.44,-10.196 0.28,-2.718 1.02,-5.144 2.18,-7.277 1.17,-2.141 2.86,-3.988 5.1,-5.539 2.23,-1.559 5.29,-3.106 9.18,-4.66 l 22.71,-9.032 c 6.6,-2.523 11.94,-5.488 16.03,-8.882 4.08,-3.399 7.28,-7.332 9.61,-11.797 2.13,-4.664 3.59,-9.957 4.37,-15.879 0.77,-5.922 1.16,-12.668 1.16,-20.242 0,-8.739 -0.87,-16.848 -2.61,-24.325 -1.75,-7.476 -4.57,-13.835 -8.45,-19.082 -4.08,-5.433 -9.43,-9.71 -16.03,-12.808 -6.6,-3.11 -14.66,-4.664 -24.18,-4.664 -7.18,0 -13.88,1.262 -20.09,3.789 -6.21,2.519 -11.56,6.015 -16.02,10.48 -4.47,4.469 -8.02,9.66 -10.63,15.586 -2.63,5.926 -3.94,12.379 -3.94,19.371 v 11.071 h 29.72 v -9.321 c 0,-5.441 1.6,-10.343 4.8,-14.714 3.2,-4.368 8.6,-6.551 16.16,-6.551 5.05,0 8.99,0.726 11.8,2.183 2.81,1.457 5,3.543 6.56,6.266 1.55,2.719 2.47,5.969 2.77,9.758 0.29,3.785 0.44,8.008 0.44,12.672 0,5.433 -0.2,9.902 -0.59,13.398 -0.39,3.496 -1.16,6.309 -2.33,8.445 -1.36,2.137 -3.16,3.883 -5.38,5.246 -2.24,1.352 -5.21,2.813 -8.89,4.372 l -21.27,8.734 c -12.81,5.242 -21.41,12.187 -25.78,20.828 -4.37,8.641 -6.55,19.465 -6.55,32.477 0,7.769 1.06,15.152 3.2,22.14 2.14,6.992 5.34,13.008 9.62,18.063 4.07,5.047 9.27,9.074 15.58,12.086 6.31,3.008 13.83,4.511 22.57,4.511 7.38,0 14.13,-1.355 20.25,-4.074 6.12,-2.722 11.4,-6.312 15.87,-10.777 8.93,-9.32 13.4,-20.004 13.4,-32.039 v -14.567"
         style="fill:#ffffff;fill-opacity:1;fill-rule:nonzero;stroke:none"
         transform="matrix(0.13333333,0,0,-0.13333333,0,100.36)" />
      <path
         id="path37"
         d="m 4780.92,80.5117 -14.56,75.1523 h -0.59 l -14.56,-75.1523 z m -73.4,-72.53123 46.31,207.40653 h 24.76 L 4824.9,7.98047 h -29.71 l -8.74,44.57033 h -40.49 l -8.74,-44.57033 h -29.7"
         style="fill:#ffffff;fill-opacity:1;fill-rule:nonzero;stroke:none"
         transform="matrix(0.13333333,0,0,-0.13333333,0,100.36)" />
      <path
         id="path38"
         d="M 4838.3,7.98047 V 215.387 h 28.55 l 44.86,-124.9768 h 0.58 V 215.387 H 4942 V 7.98047 h -27.96 L 4868.6,132.656 h -0.58 V 7.98047 h -29.72"
         style="fill:#ffffff;fill-opacity:1;fill-rule:nonzero;stroke:none"
         transform="matrix(0.13333333,0,0,-0.13333333,0,100.36)" />
      <path
         id="path39"
         d="M 4998.5,187.414 V 35.9492 h 13.7 c 8.35,0 14.27,2.0781 17.77,6.2578 3.49,4.1719 5.24,10.7227 5.24,19.6602 v 99.9098 c 0,8.164 -1.66,14.477 -4.95,18.938 -3.31,4.465 -9.32,6.699 -18.06,6.699 z M 4968.8,7.98047 V 215.387 h 43.98 c 17.08,0 30.05,-4.664 38.89,-13.989 8.84,-9.328 13.25,-22.531 13.25,-39.621 V 64.7852 c 0,-19.4219 -4.71,-33.75 -14.13,-42.9688 -9.41,-9.2266 -22.96,-13.83593 -40.64,-13.83593 h -41.35"
         style="fill:#ffffff;fill-opacity:1;fill-rule:nonzero;stroke:none"
         transform="matrix(0.13333333,0,0,-0.13333333,0,100.36)" />
      <path
         id="path40"
         d="m 5243.19,155.664 h -29.71 v 6.699 c 0,6.797 -1.6,12.676 -4.81,17.629 -3.2,4.949 -8.58,7.422 -16.16,7.422 -4.08,0 -7.38,-0.773 -9.9,-2.324 -2.53,-1.563 -4.57,-3.496 -6.13,-5.828 -1.55,-2.532 -2.61,-5.395 -3.2,-8.598 -0.58,-3.199 -0.87,-6.551 -0.87,-10.047 0,-4.082 0.15,-7.48 0.44,-10.195 0.28,-2.727 1.02,-5.149 2.18,-7.285 1.17,-2.141 2.86,-3.977 5.1,-5.528 2.23,-1.562 5.29,-3.117 9.17,-4.668 l 22.72,-9.023 c 6.6,-2.531 11.94,-5.488 16.03,-8.887 4.08,-3.398 7.28,-7.336 9.6,-11.797 2.14,-4.6598 3.6,-9.9527 4.38,-15.8785 0.77,-5.9258 1.16,-12.668 1.16,-20.2461 0,-8.7383 -0.87,-16.8438 -2.62,-24.3242 -1.74,-7.4727 -4.57,-13.8282 -8.44,-19.0704 -4.08,-5.4414 -9.43,-9.7187 -16.03,-12.8242 -6.6,-3.10544 -14.67,-4.66013 -24.18,-4.66013 -7.19,0 -13.88,1.27344 -20.1,3.78903 -6.21,2.5196 -11.55,6.0157 -16.01,10.4922 -4.47,4.461 -8.02,9.6563 -10.64,15.5742 -2.62,5.9297 -3.93,12.3829 -3.93,19.375 v 11.0625 h 29.72 V 57.207 c 0,-5.4375 1.6,-10.3398 4.8,-14.7031 3.2,-4.375 8.59,-6.5547 16.16,-6.5547 5.05,0 8.99,0.7227 11.8,2.1797 2.81,1.4531 5,3.543 6.56,6.2656 1.54,2.7149 2.47,5.9688 2.77,9.7578 0.29,3.7891 0.43,8.0079 0.43,12.6641 0,5.4414 -0.19,9.9063 -0.58,13.4024 -0.39,3.496 -1.16,6.3046 -2.34,8.4453 -1.35,2.1406 -3.15,3.8867 -5.38,5.2422 -2.23,1.3593 -5.2,2.8164 -8.88,4.375 l -21.27,8.7417 c -12.82,5.243 -21.41,12.176 -25.78,20.821 -4.37,8.64 -6.56,19.472 -6.56,32.48 0,7.766 1.07,15.145 3.21,22.141 2.14,6.988 5.34,13.004 9.62,18.062 4.07,5.051 9.26,9.078 15.58,12.09 6.31,3.012 13.83,4.516 22.57,4.516 7.38,0 14.13,-1.36 20.24,-4.078 6.13,-2.719 11.41,-6.317 15.88,-10.789 8.93,-9.317 13.4,-20 13.4,-32.039 v -14.563"
         style="fill:#ffffff;fill-opacity:1;fill-rule:nonzero;stroke:none"
         transform="matrix(0.13333333,0,0,-0.13333333,0,100.36)" />
      <path
         id="path41"
         d="m 5293.29,56.9141 c 0,-7.1875 1.99,-12.4805 5.98,-15.8672 3.97,-3.4063 8.68,-5.0977 14.12,-5.0977 5.44,0 10.14,1.6914 14.13,5.0977 3.97,3.3867 5.97,8.6797 5.97,15.8672 V 166.445 c 0,7.18 -2,12.473 -5.97,15.871 -3.99,3.399 -8.69,5.098 -14.13,5.098 -5.44,0 -10.15,-1.699 -14.12,-5.098 -3.99,-3.398 -5.98,-8.691 -5.98,-15.871 z m -29.71,109.5309 c 0,8.34 1.46,15.727 4.37,22.141 2.91,6.406 6.79,11.75 11.65,16.019 4.67,4.079 9.95,7.184 15.88,9.325 5.91,2.133 11.89,3.203 17.91,3.203 6.02,0 11.99,-1.07 17.92,-3.203 5.91,-2.141 11.31,-5.246 16.16,-9.325 4.67,-4.269 8.45,-9.613 11.37,-16.019 2.91,-6.414 4.36,-13.801 4.36,-22.141 V 56.9141 c 0,-8.7383 -1.45,-16.211 -4.36,-22.4297 -2.92,-6.211 -6.7,-11.3555 -11.37,-15.4375 -4.85,-4.2696 -10.25,-7.4727 -16.16,-9.61331 -5.93,-2.1289 -11.9,-3.20312 -17.92,-3.20312 -6.02,0 -12,1.07422 -17.91,3.20312 -5.93,2.14061 -11.21,5.34371 -15.88,9.61331 -4.86,4.082 -8.74,9.2265 -11.65,15.4375 -2.91,6.2187 -4.37,13.6914 -4.37,22.4297 V 166.445"
         style="fill:#ffffff;fill-opacity:1;fill-rule:nonzero;stroke:none"
         transform="matrix(0.13333333,0,0,-0.13333333,0,100.36)" />
      <path
         id="path42"
         d="M 5389.41,7.98047 V 215.387 h 88.56 v -27.973 h -58.85 v -62.922 h 51.27 V 96.5352 h -51.27 V 7.98047 h -29.71"
         style="fill:#ffffff;fill-opacity:1;fill-rule:nonzero;stroke:none"
         transform="matrix(0.13333333,0,0,-0.13333333,0,100.36)" />
      <path
         id="path43"
         d="M 5516.71,7.98047 V 187.414 h -34.37 v 27.973 h 98.45 v -27.973 h -34.37 V 7.98047 h -29.71"
         style="fill:#ffffff;fill-opacity:1;fill-rule:nonzero;stroke:none"
         transform="matrix(0.13333333,0,0,-0.13333333,0,100.36)" />
      <path
         id="path44"
         d="M 5747.99,215.387 5717.11,7.98047 h -27.96 L 5666.42,142.559 h -0.58 L 5643.42,7.98047 h -27.97 L 5584.57,215.387 h 31.46 l 14.86,-131.6722 h 0.58 l 23.3,131.6722 h 22.72 l 24.18,-134.8753 h 0.58 l 14.27,134.8753 h 31.47"
         style="fill:#ffffff;fill-opacity:1;fill-rule:nonzero;stroke:none"
         transform="matrix(0.13333333,0,0,-0.13333333,0,100.36)" />
      <path
         id="path45"
         d="m 5817.89,80.5117 -14.56,75.1523 h -0.59 L 5788.18,80.5117 Z M 5744.49,7.98047 5790.8,215.387 h 24.76 L 5861.87,7.98047 h -29.7 l -8.74,44.57033 h -40.49 L 5774.2,7.98047 h -29.71"
         style="fill:#ffffff;fill-opacity:1;fill-rule:nonzero;stroke:none"
         transform="matrix(0.13333333,0,0,-0.13333333,0,100.36)" />
      <path
         id="path46"
         d="m 5906.15,187.414 v -64.668 h 16.9 c 5.24,0 9.42,0.731 12.52,2.188 3.11,1.453 5.54,3.543 7.29,6.257 1.55,2.727 2.62,6.075 3.2,10.051 0.58,3.985 0.87,8.594 0.87,13.836 0,5.246 -0.29,9.856 -0.87,13.84 -0.58,3.973 -1.75,7.43 -3.49,10.344 -3.69,5.437 -10.69,8.152 -20.98,8.152 z M 5876.44,7.98047 V 215.387 h 47.78 c 34.95,0 52.43,-20.297 52.43,-60.883 0,-12.238 -1.9,-22.625 -5.69,-31.172 -3.78,-8.547 -10.43,-15.441 -19.95,-20.684 l 32.04,-94.66753 h -31.46 l -27.67,88.55473 h -17.77 V 7.98047 h -29.71"
         style="fill:#ffffff;fill-opacity:1;fill-rule:nonzero;stroke:none"
         transform="matrix(0.13333333,0,0,-0.13333333,0,100.36)" />
      <path
         id="path47"
         d="M 6000.54,7.98047 V 215.387 h 88.55 v -27.973 h -58.85 v -60.879 h 51.27 V 98.5742 h -51.27 V 37.6875 h 58.85 V 7.98047 h -88.55"
         style="fill:#ffffff;fill-opacity:1;fill-rule:nonzero;stroke:none"
         transform="matrix(0.13333333,0,0,-0.13333333,0,100.36)" />
      <path
         id="path48"
         d="m 6192.2,187.414 v -70.488 h 14.27 c 6.02,0 10.68,0.871 13.99,2.617 3.29,1.746 5.72,4.18 7.27,7.285 1.56,2.91 2.48,6.504 2.78,10.781 0.28,4.27 0.43,9.024 0.43,14.27 0,4.851 -0.1,9.469 -0.29,13.836 -0.19,4.363 -1.07,8.203 -2.62,11.504 -1.56,3.301 -3.89,5.832 -7,7.578 -3.1,1.75 -7.57,2.617 -13.4,2.617 z M 6162.49,7.98047 V 215.387 h 44.56 c 8.16,0 15.34,-1.074 21.56,-3.207 6.21,-2.141 11.84,-5.922 16.9,-11.36 5.04,-5.449 8.54,-11.804 10.48,-19.082 1.94,-7.285 2.91,-17.144 2.91,-29.566 0,-9.32 -0.53,-17.192 -1.6,-23.598 -1.07,-6.402 -3.35,-12.429 -6.84,-18.054 -4.08,-6.805 -9.52,-12.0903 -16.31,-15.8794 -6.81,-3.789 -15.73,-5.6836 -26.81,-5.6836 H 6192.2 V 7.98047 h -29.71"
         style="fill:#ffffff;fill-opacity:1;fill-rule:nonzero;stroke:none"
         transform="matrix(0.13333333,0,0,-0.13333333,0,100.36)" />
      <path
         id="path49"
         d="m 6310.75,187.414 v -64.668 h 16.89 c 5.25,0 9.43,0.731 12.53,2.188 3.11,1.453 5.54,3.543 7.29,6.257 1.55,2.727 2.62,6.075 3.2,10.051 0.58,3.985 0.87,8.594 0.87,13.836 0,5.246 -0.29,9.856 -0.87,13.84 -0.58,3.973 -1.75,7.43 -3.49,10.344 -3.7,5.437 -10.69,8.152 -20.98,8.152 z M 6281.04,7.98047 V 215.387 h 47.78 c 34.95,0 52.43,-20.297 52.43,-60.883 0,-12.238 -1.9,-22.625 -5.69,-31.172 -3.78,-8.547 -10.43,-15.441 -19.95,-20.684 l 32.04,-94.66753 h -31.46 l -27.67,88.55473 h -17.77 V 7.98047 h -29.71"
         style="fill:#ffffff;fill-opacity:1;fill-rule:nonzero;stroke:none"
         transform="matrix(0.13333333,0,0,-0.13333333,0,100.36)" />
      <path
         id="path50"
         d="m 6433.09,56.9141 c 0,-7.1875 2,-12.4805 5.98,-15.8672 3.98,-3.4063 8.68,-5.0977 14.12,-5.0977 5.44,0 10.15,1.6914 14.13,5.0977 3.98,3.3867 5.98,8.6797 5.98,15.8672 V 166.445 c 0,7.18 -2,12.473 -5.98,15.871 -3.98,3.399 -8.69,5.098 -14.13,5.098 -5.44,0 -10.14,-1.699 -14.12,-5.098 -3.98,-3.398 -5.98,-8.691 -5.98,-15.871 z m -29.7,109.5309 c 0,8.34 1.45,15.727 4.36,22.141 2.91,6.406 6.8,11.75 11.65,16.019 4.67,4.079 9.95,7.184 15.88,9.325 5.92,2.133 11.9,3.203 17.91,3.203 6.03,0 11.99,-1.07 17.92,-3.203 5.92,-2.141 11.31,-5.246 16.16,-9.325 4.67,-4.269 8.45,-9.613 11.37,-16.019 2.91,-6.414 4.37,-13.801 4.37,-22.141 V 56.9141 c 0,-8.7383 -1.46,-16.211 -4.37,-22.4297 -2.92,-6.211 -6.7,-11.3555 -11.37,-15.4375 -4.85,-4.2696 -10.24,-7.4727 -16.16,-9.61331 -5.93,-2.1289 -11.89,-3.20312 -17.92,-3.20312 -6.01,0 -11.99,1.07422 -17.91,3.20312 -5.93,2.14061 -11.21,5.34371 -15.88,9.61331 -4.85,4.082 -8.74,9.2265 -11.65,15.4375 -2.91,6.2187 -4.36,13.6914 -4.36,22.4297 V 166.445"
         style="fill:#ffffff;fill-opacity:1;fill-rule:nonzero;stroke:none"
         transform="matrix(0.13333333,0,0,-0.13333333,0,100.36)" />
      <path
         id="path51"
         d="m 6527.48,166.445 c 0,8.34 1.45,15.727 4.36,22.141 2.91,6.406 6.8,11.75 11.65,16.019 4.67,4.079 9.96,7.184 15.88,9.325 5.92,2.133 11.9,3.203 17.91,3.203 6.03,0 12,-1.07 17.92,-3.203 5.92,-2.141 11.31,-5.246 16.17,-9.325 4.66,-4.269 8.44,-9.613 11.36,-16.019 2.91,-6.414 4.37,-13.801 4.37,-22.141 v -10.484 h -29.71 v 10.484 c 0,7.18 -2,12.473 -5.98,15.871 -3.98,3.399 -8.69,5.098 -14.13,5.098 -5.44,0 -10.14,-1.699 -14.12,-5.098 -3.98,-3.398 -5.97,-8.691 -5.97,-15.871 V 56.9141 c 0,-7.1875 1.99,-12.4805 5.97,-15.8672 3.98,-3.4063 8.68,-5.0977 14.12,-5.0977 5.44,0 10.15,1.6914 14.13,5.0977 3.98,3.3867 5.98,8.6797 5.98,15.8672 v 39.0351 h -23.6 v 26.2228 h 53.31 V 56.9141 c 0,-8.7383 -1.46,-16.211 -4.37,-22.4297 -2.92,-6.211 -6.7,-11.3555 -11.36,-15.4375 -4.86,-4.2696 -10.25,-7.4727 -16.17,-9.61331 -5.92,-2.1289 -11.89,-3.20312 -17.92,-3.20312 -6.01,0 -11.99,1.07422 -17.91,3.20312 -5.92,2.14061 -11.21,5.34371 -15.88,9.61331 -4.85,4.082 -8.74,9.2265 -11.65,15.4375 -2.91,6.2187 -4.36,13.6914 -4.36,22.4297 V 166.445"
         style="fill:#ffffff;fill-opacity:1;fill-rule:nonzero;stroke:none"
         transform="matrix(0.13333333,0,0,-0.13333333,0,100.36)" />
      <path
         id="path52"
         d="m 6683.02,187.414 v -64.668 h 16.89 c 5.24,0 9.42,0.731 12.53,2.188 3.11,1.453 5.54,3.543 7.28,6.257 1.56,2.727 2.62,6.075 3.21,10.051 0.57,3.985 0.87,8.594 0.87,13.836 0,5.246 -0.3,9.856 -0.87,13.84 -0.59,3.973 -1.75,7.43 -3.5,10.344 -3.69,5.437 -10.68,8.152 -20.97,8.152 z M 6653.31,7.98047 V 215.387 h 47.77 c 34.95,0 52.43,-20.297 52.43,-60.883 0,-12.238 -1.89,-22.625 -5.68,-31.172 -3.79,-8.547 -10.44,-15.441 -19.95,-20.684 l 32.04,-94.66753 h -31.46 l -27.67,88.55473 h -17.77 V 7.98047 h -29.71"
         style="fill:#ffffff;fill-opacity:1;fill-rule:nonzero;stroke:none"
         transform="matrix(0.13333333,0,0,-0.13333333,0,100.36)" />
      <path
         id="path53"
         d="m 6837.4,80.5117 -14.56,75.1523 h -0.59 L 6807.69,80.5117 Z M 6764,7.98047 6810.31,215.387 h 24.77 l 46.3,-207.40653 h -29.7 l -8.74,44.57033 h -40.49 L 6793.71,7.98047 H 6764"
         style="fill:#ffffff;fill-opacity:1;fill-rule:nonzero;stroke:none"
         transform="matrix(0.13333333,0,0,-0.13333333,0,100.36)" />
      <path
         id="path54"
         d="M 6895.96,7.98047 V 215.387 h 28.54 l 38.15,-109.828 h 0.59 l 37.87,109.828 h 28.84 V 7.98047 h -29.72 V 134.113 h -0.57 l -29.43,-89.1403 h -14.85 l -29.13,89.1403 h -0.59 V 7.98047 h -29.7"
         style="fill:#ffffff;fill-opacity:1;fill-rule:nonzero;stroke:none"
         transform="matrix(0.13333333,0,0,-0.13333333,0,100.36)" />
    </g>
  </g>
</svg>
